<svg width="70" height="54" fill="none" xmlns="http://www.w3.org/2000/svg"><path d="M3.5 53.89h55.97a3.5 3.5 0 0 0 3.5-3.5v-4.67a3.5 3.5 0 0 0-3.5-3.5H58.3V13.16l6.63-6.28a3.52 3.52 0 1 0-1.64-1.67L58.3 9.93V7.24a3.5 3.5 0 0 0-3.5-3.5H8.16a3.5 3.5 0 0 0-3.5 3.5v34.99H3.5a3.5 3.5 0 0 0-3.5 3.5v4.66a3.5 3.5 0 0 0 3.5 3.5ZM66.47 2.58a1.17 1.17 0 1 1 0 2.33 1.17 1.17 0 0 1 0-2.33ZM7 7.24c0-.64.52-1.16 1.16-1.16H54.8c.65 0 1.17.52 1.17 1.16v4.9l-2.33 2.22V9.58c0-.65-.52-1.17-1.17-1.17H10.5c-.64 0-1.16.52-1.16 1.17v29.15c0 .64.52 1.16 1.16 1.16h41.98c.65 0 1.17-.52 1.17-1.16V17.57l2.33-2.21v26.87H7V7.24ZM17.5 22.4a3.5 3.5 0 1 0 2.41 6.01l4.06 2.04c.47.23 1.04.12 1.39-.27l8.61-9.7 8.47 6.35c.46.34 1.1.3 1.5-.08l7.37-6.98v17.8H11.66V10.73h39.65v5.82l-8.25 7.81-8.54-6.4a1.17 1.17 0 0 0-1.58.16l-8.73 9.83-3.27-1.64c.03-.14.04-.28.05-.42a3.5 3.5 0 0 0-3.5-3.5Zm1.16 3.5a1.17 1.17 0 1 1-2.34 0 1.17 1.17 0 0 1 2.34 0Zm7 18.66H37.3v1.16c0 .65-.52 1.17-1.16 1.17h-9.33c-.64 0-1.17-.52-1.17-1.17v-1.16ZM2.32 45.72c0-.64.52-1.16 1.17-1.16h19.82v1.16a3.5 3.5 0 0 0 3.5 3.5h9.33a3.5 3.5 0 0 0 3.5-3.5v-1.16h19.82c.64 0 1.16.52 1.16 1.16v4.67c0 .64-.52 1.16-1.16 1.16H3.5c-.65 0-1.17-.52-1.17-1.16v-4.67Z" fill="#212121"/></svg>