<!-- Generated by IcoMoon.io -->
<svg version="1.1" xmlns="http://www.w3.org/2000/svg" width="36" height="32" viewBox="0 0 36 32">
<title>twitter</title>
<path fill="#afb1b8" d="M35.556 4.978c-1.316 0.587-2.738 0.96-4.196 1.156 1.511-0.907 2.667-2.311 3.2-4.036-1.422 0.836-2.969 1.422-4.622 1.778-1.336-1.442-3.239-2.341-5.353-2.341-4.026 0-7.289 3.263-7.289 7.289 0 0.597 0.072 1.178 0.207 1.734l-0.010-0.050c-6.069-0.312-11.405-3.203-14.975-7.589l-0.030-0.038c-0.62 1.054-0.986 2.322-0.986 3.675 0 2.511 1.26 4.728 3.183 6.051l0.025 0.016c-1.156 0-2.311-0.356-3.289-0.889v0.071c0 3.556 2.524 6.489 5.849 7.164-0.576 0.164-1.237 0.258-1.92 0.258-0.491 0-0.97-0.049-1.433-0.141l0.046 0.008c0.976 2.915 3.649 4.992 6.818 5.066l0.009 0c-2.468 1.959-5.629 3.142-9.065 3.142-0.608 0-1.208-0.037-1.796-0.109l0.071 0.007c3.14 2.051 6.984 3.271 11.114 3.271 0.024 0 0.048-0 0.072-0h-0.004c13.422 0 20.747-11.111 20.747-20.747 0-0.32 0-0.64-0.036-0.942 1.458-1.031 2.667-2.311 3.662-3.787z"></path>
</svg>
